<svg width="1817" height="351" viewBox="0 0 1817 351" fill="none" xmlns="http://www.w3.org/2000/svg">
<g filter="url(#filter0_dd_1505_2770)">
<path d="M1758.55 292.279V87.6402C1752.61 88.9955 1745.9 89.9635 1738.24 89.9635C1711.98 89.9635 1698.75 82.0257 1685.91 74.2816C1673.26 66.7311 1660.23 58.9869 1634.55 58.9869C1608.87 58.9869 1595.83 66.7311 1583.19 74.2816C1570.34 82.0257 1557.12 89.9635 1530.86 89.9635C1504.61 89.9635 1491.38 82.0257 1478.54 74.2816C1465.7 66.7311 1452.67 58.9869 1426.98 58.9869C1401.3 58.9869 1388.27 66.7311 1375.62 74.2816C1362.78 82.0257 1349.56 89.9635 1323.3 89.9635C1297.04 89.9635 1283.82 82.0257 1270.98 74.2816C1258.33 66.7311 1245.29 58.9869 1219.61 58.9869C1193.93 58.9869 1180.9 66.7311 1168.25 74.2816C1155.41 82.0257 1142.18 89.9635 1115.92 89.9635C1089.67 89.9635 1076.44 82.0257 1063.6 74.2816C1050.95 66.7311 1037.92 58.9869 1012.24 58.9869C986.556 58.9869 973.524 66.7311 960.874 74.2816C948.033 82.0257 934.809 89.9635 908.552 89.9635C882.295 89.9635 869.07 82.0257 856.229 74.2816C843.58 66.7311 830.547 58.9869 804.865 58.9869C779.183 58.9869 766.15 66.7311 753.501 74.2816C740.66 82.0257 727.436 89.9635 701.179 89.9635C674.922 89.9635 661.697 82.0257 648.856 74.2816C636.207 66.7311 622.982 58.9869 597.3 58.9869C571.618 58.9869 558.586 66.7311 545.936 74.2816C533.095 82.0257 519.871 89.9635 493.614 89.9635C467.357 89.9635 454.132 82.0257 441.291 74.2816C428.642 66.7311 415.609 58.9869 389.927 58.9869C364.245 58.9869 351.212 66.7311 338.563 74.2816C325.722 82.0257 312.498 89.9635 286.241 89.9635C259.984 89.9635 246.759 82.0257 233.918 74.2816C221.269 66.7311 208.236 58.9869 182.554 58.9869C156.872 58.9869 143.839 66.7311 131.19 74.2816C118.349 82.0257 105.124 89.9635 78.8674 89.9635C71.2011 89.9635 64.4931 88.9955 58.5518 87.6402V292.279H1758.55Z" fill="#292999"/>
</g>
<defs>
<filter id="filter0_dd_1505_2770" x="0.551758" y="0.986938" width="1816" height="349.292" filterUnits="userSpaceOnUse" color-interpolation-filters="sRGB">
<feFlood flood-opacity="0" result="BackgroundImageFix"/>
<feColorMatrix in="SourceAlpha" type="matrix" values="0 0 0 0 0 0 0 0 0 0 0 0 0 0 0 0 0 0 127 0" result="hardAlpha"/>
<feOffset/>
<feGaussianBlur stdDeviation="29"/>
<feComposite in2="hardAlpha" operator="out"/>
<feColorMatrix type="matrix" values="0 0 0 0 0.14976 0 0 0 0 0.146563 0 0 0 0 0.4375 0 0 0 0.5 0"/>
<feBlend mode="normal" in2="BackgroundImageFix" result="effect1_dropShadow_1505_2770"/>
<feColorMatrix in="SourceAlpha" type="matrix" values="0 0 0 0 0 0 0 0 0 0 0 0 0 0 0 0 0 0 127 0" result="hardAlpha"/>
<feOffset dx="-3" dy="-2"/>
<feGaussianBlur stdDeviation="0.5"/>
<feComposite in2="hardAlpha" operator="out"/>
<feColorMatrix type="matrix" values="0 0 0 0 0.530833 0 0 0 0 0.530833 0 0 0 0 1 0 0 0 1 0"/>
<feBlend mode="normal" in2="effect1_dropShadow_1505_2770" result="effect2_dropShadow_1505_2770"/>
<feBlend mode="normal" in="SourceGraphic" in2="effect2_dropShadow_1505_2770" result="shape"/>
</filter>
</defs>
</svg>
