<svg width="3117" height="473" viewBox="0 0 3117 473" fill="none" xmlns="http://www.w3.org/2000/svg">
<g filter="url(#filter0_dd_1505_2774)">
<path d="M3058.22 414.286V101.867C3047.74 103.936 3035.9 105.414 3022.37 105.414C2976.04 105.414 2952.7 93.2952 2930.04 81.4723C2907.72 69.945 2884.72 58.1221 2839.4 58.1221C2794.07 58.1221 2771.08 69.945 2748.75 81.4723C2726.09 93.2952 2702.76 105.414 2656.42 105.414C2610.08 105.414 2586.75 93.2952 2564.09 81.4723C2541.43 69.945 2518.43 58.1221 2473.11 58.1221C2427.78 58.1221 2404.79 69.945 2382.46 81.4723C2359.8 93.2952 2336.46 105.414 2290.13 105.414C2243.79 105.414 2220.46 93.2952 2197.8 81.4723C2175.47 69.945 2152.47 58.1221 2107.15 58.1221C2061.83 58.1221 2038.83 69.945 2016.51 81.4723C1993.85 93.2952 1970.51 105.414 1924.18 105.414C1877.84 105.414 1854.5 93.2952 1831.84 81.4723C1809.52 69.945 1786.52 58.1221 1741.2 58.1221C1695.88 58.1221 1672.88 69.945 1650.56 81.4723C1627.9 93.2952 1604.56 105.414 1558.22 105.414C1511.89 105.414 1488.55 93.2952 1465.89 81.4723C1443.57 69.945 1420.57 58.1221 1375.25 58.1221C1329.93 58.1221 1306.93 69.945 1284.6 81.4723C1261.94 93.2952 1238.61 105.414 1192.27 105.414C1145.94 105.414 1122.6 93.2952 1099.94 81.4723C1077.61 69.945 1054.28 58.1221 1008.96 58.1221C963.635 58.1221 940.636 69.945 918.314 81.4723C895.653 93.2952 872.316 105.414 825.98 105.414C779.644 105.414 756.307 93.2952 733.646 81.4723C711.324 69.945 688.325 58.1221 643.004 58.1221C597.682 58.1221 574.684 69.945 552.361 81.4723C529.701 93.2952 506.363 105.414 460.027 105.414C413.692 105.414 390.354 93.2952 367.694 81.4723C345.371 69.945 322.372 58.1221 277.051 58.1221C231.73 58.1221 208.731 69.945 186.409 81.4723C163.748 93.2952 140.411 105.414 94.0748 105.414C80.5461 105.414 68.7084 103.936 58.2236 101.867V414.286H3058.22Z" fill="#3232BC"/>
</g>
<defs>
<filter id="filter0_dd_1505_2774" x="0.223633" y="0.12207" width="3116" height="472.164" filterUnits="userSpaceOnUse" color-interpolation-filters="sRGB">
<feFlood flood-opacity="0" result="BackgroundImageFix"/>
<feColorMatrix in="SourceAlpha" type="matrix" values="0 0 0 0 0 0 0 0 0 0 0 0 0 0 0 0 0 0 127 0" result="hardAlpha"/>
<feOffset/>
<feGaussianBlur stdDeviation="29"/>
<feComposite in2="hardAlpha" operator="out"/>
<feColorMatrix type="matrix" values="0 0 0 0 0.14976 0 0 0 0 0.146563 0 0 0 0 0.4375 0 0 0 0.5 0"/>
<feBlend mode="normal" in2="BackgroundImageFix" result="effect1_dropShadow_1505_2774"/>
<feColorMatrix in="SourceAlpha" type="matrix" values="0 0 0 0 0 0 0 0 0 0 0 0 0 0 0 0 0 0 127 0" result="hardAlpha"/>
<feOffset dx="-3" dy="-2"/>
<feGaussianBlur stdDeviation="0.5"/>
<feComposite in2="hardAlpha" operator="out"/>
<feColorMatrix type="matrix" values="0 0 0 0 0.530833 0 0 0 0 0.530833 0 0 0 0 1 0 0 0 1 0"/>
<feBlend mode="normal" in2="effect1_dropShadow_1505_2774" result="effect2_dropShadow_1505_2774"/>
<feBlend mode="normal" in="SourceGraphic" in2="effect2_dropShadow_1505_2774" result="shape"/>
</filter>
</defs>
</svg>
