<svg width="2717" height="446" viewBox="0 0 2717 446" fill="none" xmlns="http://www.w3.org/2000/svg">
<g filter="url(#filter0_dd_1505_2773)">
<path d="M2658.79 387.124V99.1768C2649.7 101.084 2639.44 102.446 2627.72 102.446C2587.56 102.446 2567.33 91.2766 2547.69 80.3798C2528.35 69.7554 2508.41 58.8586 2469.14 58.8586C2429.86 58.8586 2409.92 69.7554 2390.58 80.3798C2370.94 91.2766 2350.71 102.446 2310.56 102.446C2270.4 102.446 2250.17 91.2766 2230.53 80.3798C2210.89 69.7554 2190.96 58.8586 2151.68 58.8586C2112.41 58.8586 2092.47 69.7554 2073.13 80.3798C2053.49 91.2766 2033.26 102.446 1993.1 102.446C1952.95 102.446 1932.72 91.2766 1913.08 80.3798C1893.74 69.7554 1873.8 58.8586 1834.52 58.8586C1795.25 58.8586 1775.31 69.7554 1755.97 80.3798C1736.33 91.2766 1716.1 102.446 1675.95 102.446C1635.79 102.446 1615.56 91.2766 1595.92 80.3798C1576.58 69.7554 1556.64 58.8586 1517.37 58.8586C1478.09 58.8586 1458.15 69.7554 1438.81 80.3798C1419.17 91.2766 1398.94 102.446 1358.79 102.446C1318.63 102.446 1298.4 91.2766 1278.76 80.3798C1259.42 69.7554 1239.49 58.8586 1200.21 58.8586C1160.93 58.8586 1141 69.7554 1121.65 80.3798C1102.01 91.2766 1081.78 102.446 1041.63 102.446C1001.47 102.446 981.244 91.2766 961.605 80.3798C942.259 69.7554 922.033 58.8586 882.755 58.8586C843.476 58.8586 823.544 69.7554 804.198 80.3798C784.558 91.2766 764.333 102.446 724.175 102.446C684.017 102.446 663.792 91.2766 644.153 80.3798C624.806 69.7554 604.874 58.8586 565.596 58.8586C526.317 58.8586 506.385 69.7554 487.039 80.3798C467.399 91.2766 447.174 102.446 407.016 102.446C366.858 102.446 346.633 91.2766 326.994 80.3798C307.647 69.7554 287.715 58.8586 248.437 58.8586C209.158 58.8586 189.226 69.7554 169.88 80.3798C150.24 91.2766 130.015 102.446 89.8572 102.446C78.1322 102.446 67.8729 101.084 58.7861 99.1768V387.124H2658.79Z" fill="#2F2FB3"/>
</g>
<defs>
<filter id="filter0_dd_1505_2773" x="0.786133" y="0.858643" width="2716" height="444.266" filterUnits="userSpaceOnUse" color-interpolation-filters="sRGB">
<feFlood flood-opacity="0" result="BackgroundImageFix"/>
<feColorMatrix in="SourceAlpha" type="matrix" values="0 0 0 0 0 0 0 0 0 0 0 0 0 0 0 0 0 0 127 0" result="hardAlpha"/>
<feOffset/>
<feGaussianBlur stdDeviation="29"/>
<feComposite in2="hardAlpha" operator="out"/>
<feColorMatrix type="matrix" values="0 0 0 0 0.14976 0 0 0 0 0.146563 0 0 0 0 0.4375 0 0 0 0.5 0"/>
<feBlend mode="normal" in2="BackgroundImageFix" result="effect1_dropShadow_1505_2773"/>
<feColorMatrix in="SourceAlpha" type="matrix" values="0 0 0 0 0 0 0 0 0 0 0 0 0 0 0 0 0 0 127 0" result="hardAlpha"/>
<feOffset dx="-3" dy="-2"/>
<feGaussianBlur stdDeviation="0.5"/>
<feComposite in2="hardAlpha" operator="out"/>
<feColorMatrix type="matrix" values="0 0 0 0 0.530833 0 0 0 0 0.530833 0 0 0 0 1 0 0 0 1 0"/>
<feBlend mode="normal" in2="effect1_dropShadow_1505_2773" result="effect2_dropShadow_1505_2773"/>
<feBlend mode="normal" in="SourceGraphic" in2="effect2_dropShadow_1505_2773" result="shape"/>
</filter>
</defs>
</svg>
