<svg width="2317" height="417" viewBox="0 0 2317 417" fill="none" xmlns="http://www.w3.org/2000/svg">
<g filter="url(#filter0_dd_1505_2771)">
<path d="M2258.84 358.164V95.1252C2251.15 96.8671 2242.47 98.1114 2232.55 98.1114C2198.57 98.1114 2181.46 87.9084 2164.84 77.9542C2148.47 68.2489 2131.6 58.2948 2098.37 58.2948C2065.13 58.2948 2048.26 68.2489 2031.9 77.9542C2015.28 87.9084 1998.16 98.1114 1964.18 98.1114C1930.2 98.1114 1913.09 87.9084 1896.47 77.9542C1879.85 68.2489 1862.99 58.2948 1829.75 58.2948C1796.52 58.2948 1779.65 68.2489 1763.28 77.9542C1746.66 87.9084 1729.55 98.1114 1695.57 98.1114C1661.59 98.1114 1644.48 87.9084 1627.86 77.9542C1611.49 68.2489 1594.62 58.2948 1561.39 58.2948C1528.15 58.2948 1511.29 68.2489 1494.92 77.9542C1478.3 87.9084 1461.18 98.1114 1427.21 98.1114C1393.23 98.1114 1376.11 87.9084 1359.49 77.9542C1343.12 68.2489 1326.26 58.2948 1293.02 58.2948C1259.79 58.2948 1242.92 68.2489 1226.55 77.9542C1209.93 87.9084 1192.82 98.1114 1158.84 98.1114C1124.86 98.1114 1107.75 87.9084 1091.13 77.9542C1074.76 68.2489 1057.89 58.2948 1024.66 58.2948C991.422 58.2948 974.556 68.2489 958.186 77.9542C941.568 87.9084 924.454 98.1114 890.475 98.1114C856.495 98.1114 839.381 87.9084 822.763 77.9542C806.393 68.2489 789.28 58.2948 756.044 58.2948C722.808 58.2948 705.942 68.2489 689.573 77.9542C672.955 87.9084 655.841 98.1114 621.861 98.1114C587.882 98.1114 570.768 87.9084 554.15 77.9542C537.78 68.2489 520.914 58.2948 487.679 58.2948C454.443 58.2948 437.577 68.2489 421.207 77.9542C404.59 87.9084 387.476 98.1114 353.496 98.1114C319.516 98.1114 302.402 87.9084 285.785 77.9542C269.415 68.2489 252.549 58.2948 219.313 58.2948C186.078 58.2948 169.212 68.2489 152.842 77.9542C136.224 87.9084 119.11 98.1114 85.1307 98.1114C75.2096 98.1114 66.5287 96.8671 58.8398 95.1252V358.164H2258.84Z" fill="#2C2CA6"/>
</g>
<defs>
<filter id="filter0_dd_1505_2771" x="0.839844" y="0.2948" width="2316" height="415.869" filterUnits="userSpaceOnUse" color-interpolation-filters="sRGB">
<feFlood flood-opacity="0" result="BackgroundImageFix"/>
<feColorMatrix in="SourceAlpha" type="matrix" values="0 0 0 0 0 0 0 0 0 0 0 0 0 0 0 0 0 0 127 0" result="hardAlpha"/>
<feOffset/>
<feGaussianBlur stdDeviation="29"/>
<feComposite in2="hardAlpha" operator="out"/>
<feColorMatrix type="matrix" values="0 0 0 0 0.14976 0 0 0 0 0.146563 0 0 0 0 0.4375 0 0 0 0.5 0"/>
<feBlend mode="normal" in2="BackgroundImageFix" result="effect1_dropShadow_1505_2771"/>
<feColorMatrix in="SourceAlpha" type="matrix" values="0 0 0 0 0 0 0 0 0 0 0 0 0 0 0 0 0 0 127 0" result="hardAlpha"/>
<feOffset dx="-3" dy="-2"/>
<feGaussianBlur stdDeviation="0.5"/>
<feComposite in2="hardAlpha" operator="out"/>
<feColorMatrix type="matrix" values="0 0 0 0 0.530833 0 0 0 0 0.530833 0 0 0 0 1 0 0 0 1 0"/>
<feBlend mode="normal" in2="effect1_dropShadow_1505_2771" result="effect2_dropShadow_1505_2771"/>
<feBlend mode="normal" in="SourceGraphic" in2="effect2_dropShadow_1505_2771" result="shape"/>
</filter>
</defs>
</svg>
